<svg version="1.1" id="Layer_1" xmlns="http://www.w3.org/2000/svg" xmlns:xlink="http://www.w3.org/1999/xlink" x="0px" y="0px"
	 width="100%" viewBox="0 0 1920 810" enable-background="new 0 0 1920 810" xml:space="preserve">
<path fill="#010101" opacity="1.000000" stroke="none" 
	d="
M1151.000000,811.000000 
	C768.833313,811.000000 387.166656,810.993591 5.500024,811.093079 
	C1.750926,811.094055 0.905275,810.249146 0.906714,806.499939 
	C1.009191,539.500000 1.009191,272.500000 0.906714,5.500036 
	C0.905275,1.750846 1.750997,0.906695 5.500014,0.907264 
	C642.500000,1.003858 1279.500000,1.003859 1916.500000,0.907264 
	C1920.249023,0.906695 1921.094604,1.750845 1921.093262,5.500035 
	C1920.990723,272.500000 1920.990723,539.500000 1921.093262,806.499939 
	C1921.094727,810.249146 1920.249146,811.094849 1916.500000,811.093323 
	C1661.500000,810.990417 1406.500000,811.000000 1151.000000,811.000000 
z"/>
<path fill="#FDFDFD" opacity="1.000000" stroke="none" 
	d="
M116.249039,487.999817 
	C116.238106,478.835266 116.167328,470.170288 116.230003,461.506256 
	C116.328590,447.879364 130.609787,438.957581 143.423752,443.529236 
	C154.457748,447.465790 166.017319,449.921875 177.327209,453.094238 
	C192.309494,457.296722 207.246979,461.661255 222.254578,465.770355 
	C241.283325,470.980438 260.381836,475.935547 279.415131,481.129181 
	C295.358246,485.479584 311.190369,490.248932 327.186859,494.387451 
	C338.256012,497.251190 349.005676,495.620972 359.093628,490.091431 
	C360.223877,489.471924 361.430298,488.256531 362.724213,489.147430 
	C364.228516,490.183197 363.651581,491.963715 363.168579,493.286926 
	C356.146454,512.523987 351.178925,532.402405 344.841766,551.855103 
	C341.219330,562.974487 338.147003,574.283691 335.145874,585.592102 
	C331.822571,598.114441 325.810730,609.223572 318.319824,619.653259 
	C310.074432,631.133301 301.816772,642.594788 290.322540,651.184204 
	C284.297089,655.686890 277.739258,658.138367 269.991211,658.106445 
	C228.668640,657.936157 187.344849,657.975830 146.021759,658.067139 
	C135.208237,658.091003 126.551033,654.214783 120.664207,645.021912 
	C117.667603,640.342407 116.201790,635.121094 116.207336,629.465759 
	C116.253418,582.477112 116.242638,535.488464 116.249039,487.999817 
z"/>
<path fill="#FDFDFD" opacity="1.000000" stroke="none" 
	d="
M183.980576,374.922913 
	C168.299622,370.473511 153.022415,366.085510 137.681229,361.933929 
	C134.653839,361.114655 131.534119,360.674591 128.576279,359.502625 
	C121.561401,356.723206 116.236290,349.349304 116.229897,341.745331 
	C116.190987,295.435486 115.967079,249.123428 116.365936,202.816956 
	C116.488235,188.617844 128.566895,175.878326 143.558426,175.915802 
	C196.531326,176.048248 249.504715,176.037170 302.477814,175.985474 
	C316.327515,175.971939 329.950684,177.944107 343.581879,179.997864 
	C344.534058,180.141327 345.802216,179.957504 345.834259,181.331650 
	C345.868378,182.794220 344.812500,183.745560 343.631378,184.445908 
	C337.701721,187.961899 332.662109,192.553528 328.059418,197.608444 
	C315.757385,211.119156 307.525513,226.733566 303.325409,244.596252 
	C298.866425,263.559784 293.904083,282.404724 289.195679,301.309937 
	C286.153412,313.525299 283.568451,325.871277 280.050964,337.946747 
	C276.642944,349.646484 274.327972,361.644409 270.202301,373.149292 
	C268.925018,376.711151 268.770996,380.728394 266.512665,383.901428 
	C261.489990,390.958466 254.553238,394.113068 246.079666,392.042053 
	C235.806564,389.531219 225.708908,386.309174 215.509399,383.488678 
	C205.143311,380.622101 194.745682,377.869598 183.980576,374.922913 
z"/>
<path fill="#FDFDFD" opacity="1.000000" stroke="none" 
	d="
M406.256073,362.551575 
	C386.535248,357.065338 367.164673,351.800934 347.802002,346.507690 
	C338.911377,344.077240 330.305969,340.571014 320.998840,339.729767 
	C311.883698,338.905884 303.170898,339.859161 295.193787,344.769104 
	C294.351166,345.287750 293.408112,345.652924 292.486633,346.027740 
	C292.209167,346.140564 291.847046,346.045197 291.292297,346.045197 
	C290.639160,342.436035 292.339691,339.155212 293.213867,335.987030 
	C298.665527,316.229492 303.148865,296.239929 308.014221,276.342743 
	C311.658783,261.437927 314.248291,246.176880 319.189117,231.717392 
	C323.369354,219.483871 331.398224,208.951920 340.494354,199.525162 
	C345.135162,194.715683 350.389893,190.683929 355.688812,186.632278 
	C358.828857,184.231339 361.736847,184.201736 364.969086,185.210236 
	C411.286469,199.662064 450.562012,225.029480 481.829865,262.149353 
	C500.108521,283.849030 514.092285,308.206055 523.616150,335.117340 
	C527.502136,346.097992 530.585876,357.251709 533.178223,368.534729 
	C536.902100,384.742645 525.618408,395.575287 509.515076,391.251526 
	C485.538300,384.813751 461.682343,377.926849 437.764069,371.270172 
	C427.393188,368.383881 416.995209,365.594818 406.256073,362.551575 
z"/>
<path fill="#FCFCFC" opacity="1.000000" stroke="none" 
	d="
M478.410522,575.409668 
	C454.882141,602.132935 427.186829,622.658630 395.012177,637.083435 
	C366.528778,649.853271 336.542389,656.300354 305.477509,658.120483 
	C305.311310,658.130249 305.143097,658.148376 304.978363,658.133789 
	C303.070007,657.965332 300.339081,659.031433 299.607025,656.807434 
	C298.999725,654.962463 301.646515,654.117432 303.023438,653.046021 
	C325.507080,635.550537 340.528839,612.940918 348.709808,585.792908 
	C355.950073,561.766541 362.641876,537.574219 369.958405,513.571716 
	C374.049286,500.151337 377.163269,486.464264 381.617554,473.135925 
	C383.538239,467.388916 384.623291,461.303864 386.267914,455.405243 
	C388.755951,446.481842 401.759521,440.281677 411.322693,443.763916 
	C426.684052,449.357483 442.833191,452.784637 458.643188,457.149750 
	C476.958313,462.206482 495.302673,467.162292 513.563049,472.410095 
	C522.889954,475.090515 528.370911,486.337280 524.905457,495.828857 
	C514.247009,525.021790 499.341675,551.781067 478.410522,575.409668 
z"/>
<path fill="#FBFBFB" opacity="1.000000" stroke="none" 
	d="
M708.031006,331.061981 
	C698.193848,333.576294 688.577637,333.977997 678.881042,333.938049 
	C664.057251,333.876953 649.230774,333.991486 634.409058,334.245819 
	C630.676147,334.309845 629.639648,333.124908 629.650085,329.371521 
	C629.774231,284.727966 629.740051,240.083893 629.669128,195.440063 
	C629.663879,192.160141 630.003723,190.133820 634.157593,190.202469 
	C651.977417,190.496872 669.803040,190.419266 687.624023,190.664948 
	C704.390320,190.896103 719.927307,195.322540 733.173462,205.886887 
	C754.195679,222.652969 761.034363,245.231918 758.600220,271.151184 
	C756.829102,290.009705 748.895996,305.866394 734.047180,317.943848 
	C726.460510,324.114624 717.792480,328.242401 708.031006,331.061981 
z"/>
<path fill="#FBFBFB" opacity="1.000000" stroke="none" 
	d="
M1468.867920,261.326172 
	C1470.249756,274.051666 1470.732056,286.278717 1467.197510,298.387299 
	C1456.706177,334.327667 1420.110718,343.453644 1397.018555,329.497498 
	C1393.703125,327.493744 1390.916626,324.902985 1388.463257,321.940277 
	C1387.582642,320.876892 1386.541748,319.644226 1385.210938,320.033508 
	C1383.622192,320.498322 1384.126831,322.244934 1384.138794,323.511292 
	C1384.325806,343.167419 1384.497925,362.823883 1384.768066,382.478943 
	C1384.853394,388.685181 1384.723389,388.796814 1378.419434,388.699463 
	C1370.594482,388.578583 1362.742432,388.369263 1354.947021,388.881348 
	C1350.404907,389.179688 1349.663330,387.526123 1349.674072,383.554901 
	C1349.807495,334.241089 1349.810181,284.926910 1349.835815,235.612808 
	C1349.837891,231.614670 1349.830811,227.614182 1349.697632,223.619125 
	C1349.602661,220.771408 1350.379150,219.321579 1353.671265,219.546707 
	C1362.651245,220.160721 1371.655151,220.182709 1380.641724,219.621078 
	C1383.853027,219.420364 1384.825317,220.942612 1384.647461,223.786545 
	C1384.491333,226.280579 1384.297363,228.773239 1384.202026,231.269623 
	C1384.159058,232.393829 1383.852905,233.929672 1385.171631,234.332291 
	C1386.291382,234.674164 1387.228394,233.540237 1388.054688,232.716217 
	C1412.690308,208.146667 1452.140869,216.537613 1464.898560,249.103104 
	C1466.406860,252.953293 1467.502075,256.965332 1468.867920,261.326172 
z"/>
<path fill="#FAFAFA" opacity="1.000000" stroke="none" 
	d="
M913.094604,501.899597 
	C905.005737,502.576660 901.001831,505.559998 899.857910,511.444275 
	C898.421143,518.835022 900.876526,523.796753 908.029114,527.223450 
	C919.300110,532.623230 931.477905,535.670105 942.975403,540.515808 
	C952.562927,544.556519 960.994141,550.013123 966.175476,559.281616 
	C974.700439,574.531555 970.116455,596.529785 956.240967,608.274292 
	C935.338562,625.966431 895.424255,625.148132 875.203674,606.689880 
	C867.744507,599.880798 863.913269,591.256287 862.015991,581.571350 
	C861.284668,577.838013 862.257019,576.146179 866.604492,576.309875 
	C876.083618,576.666626 885.584106,576.512573 895.075195,576.456055 
	C897.692810,576.440491 899.650574,576.867859 900.127747,579.923645 
	C901.661743,589.748169 909.240051,593.133179 917.315369,593.077332 
	C919.933167,593.059265 922.637573,592.519226 925.143677,591.720215 
	C934.486816,588.741272 937.029297,577.122925 929.850525,570.404236 
	C923.268799,564.244446 914.657776,562.386230 906.459167,559.764954 
	C899.484009,557.534851 892.538452,555.247864 885.881714,552.194702 
	C870.714233,545.238098 862.174011,533.660583 862.302368,516.686218 
	C862.429504,499.869141 869.851196,486.987701 885.435791,480.202667 
	C906.934692,470.842804 928.528076,471.071899 949.224487,482.836792 
	C960.330322,489.149963 965.882690,499.605652 968.342896,511.861206 
	C969.118896,515.727234 968.324829,517.541809 963.605957,517.306641 
	C954.137695,516.834839 944.630493,517.016602 935.142334,517.147705 
	C932.017883,517.190857 930.471619,516.580627 929.770874,513.045044 
	C928.374756,506.000061 922.647766,502.390076 913.094604,501.899597 
z"/>
<path fill="#FAFAFA" opacity="1.000000" stroke="none" 
	d="
M1626.229980,519.358887 
	C1613.563721,548.968994 1601.035278,578.225952 1588.600952,607.523010 
	C1579.795166,628.271057 1571.104736,649.067993 1562.395752,669.856934 
	C1561.103271,672.941772 1559.311401,674.368347 1555.593506,674.089844 
	C1546.620972,673.417725 1537.611816,673.704163 1528.620361,674.234924 
	C1523.554688,674.533936 1522.675537,673.419434 1524.683350,669.022583 
	C1532.120605,652.736206 1539.586182,636.462158 1547.179443,620.248352 
	C1548.651245,617.105896 1548.625122,614.320679 1547.289307,611.182312 
	C1536.840332,586.633118 1526.491333,562.041321 1516.088013,537.472656 
	C1512.211182,528.317261 1508.277954,519.185791 1504.358398,510.048553 
	C1502.614746,505.983337 1503.230713,504.949097 1507.628296,505.135345 
	C1517.456177,505.551605 1527.296631,505.858795 1537.105103,505.193085 
	C1540.738525,504.946503 1542.329224,506.529114 1543.357422,509.404572 
	C1550.668213,529.851196 1557.937378,550.312744 1565.244629,570.760620 
	C1565.902344,572.601196 1566.489624,574.536377 1568.773560,576.028870 
	C1571.841309,567.314636 1574.805664,558.796753 1577.837646,550.303040 
	C1582.852051,536.255737 1587.930298,522.231140 1592.930786,508.178894 
	C1593.834473,505.639740 1595.689331,505.123260 1598.050415,505.221497 
	C1607.878296,505.630463 1617.708130,505.730682 1627.526733,505.034637 
	C1631.898193,504.724762 1631.878174,506.927246 1630.526001,509.973297 
	C1629.181396,513.002258 1627.782837,516.007324 1626.229980,519.358887 
z"/>
<path fill="#F9F9F9" opacity="1.000000" stroke="none" 
	d="
M1353.514404,621.124878 
	C1330.564575,619.429199 1313.314453,609.696411 1304.079102,588.366516 
	C1299.510376,577.814392 1298.099976,566.564026 1299.452393,555.129272 
	C1301.607056,536.911987 1308.972656,521.703491 1325.303223,511.892120 
	C1348.008057,498.251099 1389.324707,500.380524 1405.958618,530.039307 
	C1412.544189,541.781433 1414.199097,554.436279 1413.735107,567.591797 
	C1413.630371,570.564819 1411.823120,571.060120 1409.369751,571.038147 
	C1386.217163,570.830322 1363.063965,570.682373 1339.911621,570.452637 
	C1334.041504,570.394409 1333.341431,570.957947 1334.736572,576.651550 
	C1336.720703,584.748474 1341.710205,590.254028 1349.976318,592.047180 
	C1358.445312,593.884338 1366.360718,593.000793 1371.710571,585.043335 
	C1373.478882,582.413330 1375.437256,581.474915 1378.667603,581.561218 
	C1387.486938,581.796875 1396.320312,581.616150 1405.146118,581.473755 
	C1410.520752,581.387085 1411.572266,582.498047 1409.434204,587.494751 
	C1403.480469,601.408569 1393.660156,611.566345 1379.417725,617.102966 
	C1371.244873,620.279968 1362.730957,621.604431 1353.514404,621.124878 
z"/>
<path fill="#F9F9F9" opacity="1.000000" stroke="none" 
	d="
M1064.272949,284.808289 
	C1061.238037,284.859985 1060.272583,286.134766 1060.625977,288.673737 
	C1061.757202,296.799805 1068.196777,304.268707 1075.620361,306.337128 
	C1084.560791,308.828217 1095.118896,306.334442 1098.978271,298.759766 
	C1100.202026,296.357819 1102.343872,296.077881 1104.891113,296.102814 
	C1114.050903,296.192352 1123.214478,296.085449 1132.374268,295.928040 
	C1137.094482,295.846924 1138.212036,297.400085 1136.220581,301.908539 
	C1130.572876,314.694977 1121.776245,324.377747 1108.939697,330.407501 
	C1088.176147,340.160706 1059.808105,336.170898 1043.016479,320.680725 
	C1033.584229,311.979614 1028.498291,300.831024 1026.708984,288.367523 
	C1024.353516,271.960693 1026.335693,256.147614 1035.651855,241.908112 
	C1043.764282,229.508499 1055.481689,222.311386 1069.830444,219.654831 
	C1096.022461,214.805634 1121.006958,223.178024 1133.223877,245.547546 
	C1139.416260,256.886047 1140.757080,269.148071 1140.448486,281.757660 
	C1140.381714,284.489594 1138.844238,285.485321 1136.216553,285.458679 
	C1112.393066,285.217102 1088.569214,285.022156 1064.272949,284.808289 
z"/>
<path fill="#F9F9F9" opacity="1.000000" stroke="none" 
	d="
M1520.263306,298.576538 
	C1530.946655,310.670013 1544.748779,310.360687 1554.808105,298.092377 
	C1555.974854,296.669403 1557.359863,296.071716 1559.138306,296.120575 
	C1569.300903,296.399780 1579.455078,296.398438 1589.619751,295.911255 
	C1594.403931,295.681976 1592.828491,298.876709 1591.821045,301.329590 
	C1585.453857,316.834198 1574.546631,327.872833 1558.419312,332.595642 
	C1537.018799,338.862640 1516.822754,336.336884 1499.337646,321.364807 
	C1490.578369,313.864471 1485.282471,304.050232 1483.175659,292.821014 
	C1480.035400,276.082642 1480.715820,259.640320 1489.559692,244.441513 
	C1497.380249,231.001236 1509.234253,222.839035 1524.331421,219.902512 
	C1543.041260,216.263306 1560.935669,218.173767 1576.327026,230.692673 
	C1592.745850,244.047256 1596.659424,262.257782 1595.594482,282.245148 
	C1595.457886,284.809387 1594.122681,285.498169 1591.650391,285.469604 
	C1567.994385,285.196411 1544.335205,285.144867 1520.682007,284.737335 
	C1516.121826,284.658813 1515.354736,286.614502 1516.455078,290.107422 
	C1517.342163,292.923798 1518.114258,295.879211 1520.263306,298.576538 
z"/>
<path fill="#F9F9F9" opacity="1.000000" stroke="none" 
	d="
M874.910645,239.080826 
	C884.818665,251.998611 886.653015,266.639160 886.034241,281.918976 
	C885.922729,284.674011 884.638306,285.505707 881.884216,285.471527 
	C858.224609,285.177887 834.561462,285.126831 810.903748,284.737915 
	C806.734863,284.669373 805.755005,286.337799 806.710022,289.728607 
	C809.052368,298.044312 813.485291,304.534332 822.580750,306.507660 
	C831.621704,308.469238 839.555481,307.049561 844.889221,298.644745 
	C846.424744,296.225311 848.513000,296.082703 850.920349,296.149841 
	C860.251282,296.410095 869.579773,296.481140 878.907593,295.930023 
	C883.409302,295.664032 884.121765,296.862579 882.279602,301.257629 
	C874.035278,320.926331 859.157898,332.217682 838.205383,335.033295 
	C815.644592,338.065002 792.339050,330.313782 779.962646,309.544250 
	C771.393372,295.163788 770.321472,279.391663 773.024963,263.608398 
	C776.462341,243.540985 787.714478,228.860764 807.442505,221.926239 
	C828.867065,214.395370 858.727478,217.682266 874.910645,239.080826 
z"/>
<path fill="#FAFAFA" opacity="1.000000" stroke="none" 
	d="
M1251.268066,221.257370 
	C1265.485962,217.295593 1279.385132,217.019485 1292.990234,221.714264 
	C1314.082764,228.992783 1326.592529,244.253799 1329.961060,265.996918 
	C1333.424927,288.355225 1328.146851,308.451630 1309.572998,323.182892 
	C1282.231079,344.868225 1236.797119,337.570007 1220.394287,308.712006 
	C1204.054810,279.965790 1211.390015,234.222595 1251.268066,221.257370 
z"/>
<path fill="#FAFAFA" opacity="1.000000" stroke="none" 
	d="
M1048.332397,621.026611 
	C1023.229492,621.727722 1002.469299,614.000183 991.294983,590.690552 
	C973.414124,553.390808 992.447388,503.366211 1045.011230,503.972809 
	C1071.317749,504.276367 1091.600830,516.908142 1099.587036,540.596985 
	C1112.111694,577.748352 1093.804810,617.226135 1048.332397,621.026611 
z"/>
<path fill="#F9F9F9" opacity="1.000000" stroke="none" 
	d="
M1155.917114,582.863831 
	C1165.939575,595.214111 1180.912598,594.384705 1188.588135,581.300232 
	C1190.037354,578.829834 1191.762695,578.052002 1194.639893,578.119019 
	C1203.463135,578.324585 1212.297241,578.229675 1221.123901,578.073425 
	C1227.062012,577.968323 1228.092529,579.102356 1226.004517,584.610168 
	C1219.842285,600.863525 1209.348877,613.164062 1192.305054,618.155151 
	C1170.511963,624.537048 1150.002563,621.917664 1132.481079,606.310059 
	C1123.188965,598.033020 1118.247192,587.123535 1116.439453,574.961609 
	C1113.733032,556.753052 1115.917603,539.428894 1127.423706,524.267639 
	C1135.448975,513.693054 1146.349731,507.515259 1159.232422,505.186707 
	C1184.781738,500.568604 1208.294678,507.842438 1220.847412,529.503052 
	C1223.341431,533.806519 1225.444336,538.318481 1226.659912,543.200134 
	C1227.367432,546.041748 1226.459473,547.293152 1223.478516,547.125916 
	C1213.488525,546.565430 1203.489868,546.593689 1193.497192,546.983887 
	C1191.357422,547.067444 1190.000244,546.382019 1189.137207,544.492126 
	C1185.207520,535.887207 1178.334839,532.725647 1169.226196,533.843140 
	C1160.325439,534.934998 1155.156250,540.568665 1153.028564,548.687378 
	C1150.020996,560.163208 1149.565430,571.680237 1155.917114,582.863831 
z"/>
<path fill="#F9F9F9" opacity="1.000000" stroke="none" 
	d="
M1761.175293,219.921494 
	C1779.778442,223.915649 1790.611572,238.280228 1793.411743,252.722092 
	C1794.083862,256.187744 1793.301636,257.582916 1789.469971,257.437561 
	C1781.483765,257.134674 1773.481445,257.184937 1765.486328,257.220459 
	C1763.078735,257.231171 1761.748169,256.768524 1760.748169,254.109268 
	C1757.378052,245.148529 1746.233887,241.221756 1737.337158,245.346634 
	C1733.915527,246.933060 1732.013184,249.615616 1732.043579,253.124084 
	C1732.074219,256.679504 1734.159790,259.528198 1737.626465,260.682404 
	C1742.986816,262.467102 1748.466553,263.891937 1753.885864,265.502228 
	C1759.941772,267.301697 1766.069336,268.903412 1772.019653,271.004852 
	C1785.930786,275.917816 1794.421509,285.489716 1794.553955,300.602356 
	C1794.683716,315.406921 1786.622681,325.661713 1773.263794,330.809235 
	C1752.364624,338.862213 1731.778564,337.787445 1712.611450,325.273956 
	C1703.903320,319.588745 1698.628296,311.314575 1696.234497,301.142242 
	C1695.393066,297.566925 1696.390381,296.156921 1700.073853,296.237244 
	C1708.899414,296.429688 1717.728271,296.497589 1726.556030,296.544098 
	C1728.985474,296.556915 1730.569946,297.207611 1731.324585,299.853577 
	C1734.351807,310.468018 1750.854492,312.695831 1758.448486,307.312836 
	C1763.711792,303.582092 1762.569702,295.942352 1756.340088,293.241272 
	C1749.445068,290.251740 1742.064819,288.780518 1734.836182,286.843933 
	C1727.773315,284.951813 1720.634277,283.246490 1714.179565,279.617676 
	C1692.743774,267.566650 1695.406860,236.848434 1716.587158,225.163086 
	C1730.564697,217.451553 1745.507568,217.141571 1761.175293,219.921494 
z"/>
<path fill="#FAFAFA" opacity="1.000000" stroke="none" 
	d="
M993.343262,290.407410 
	C988.541687,303.893646 983.757080,316.973877 979.384216,330.190338 
	C978.390503,333.193726 977.034790,334.150940 974.127136,334.134155 
	C962.131653,334.065002 950.132629,333.980377 938.141479,334.224152 
	C935.096680,334.286072 934.009644,332.911285 933.179871,330.535583 
	C929.352844,319.578430 925.554626,308.610840 921.650269,297.681244 
	C913.286926,274.269043 904.864441,250.878006 896.465393,227.478577 
	C896.409241,227.321899 896.340576,227.169724 896.280823,227.014297 
	C893.442200,219.636490 893.673462,219.462326 901.737366,219.633270 
	C910.228943,219.813263 918.728760,219.788376 927.221252,219.640930 
	C930.328064,219.586990 931.835449,220.341125 932.779358,223.705460 
	C939.453796,247.496140 947.613464,270.852264 953.684265,294.825531 
	C954.164368,296.721436 955.018494,298.492920 957.060364,300.382233 
	C958.772583,294.497620 960.295593,289.144867 961.887695,283.812744 
	C967.296570,265.696991 972.579590,247.541580 978.213562,229.495880 
	C981.294922,219.626266 981.569092,219.806046 991.889160,219.880524 
	C999.050598,219.932220 1006.224670,219.872757 1013.372742,219.487259 
	C1017.185608,219.281647 1018.543152,220.684204 1017.179382,224.046753 
	C1010.632324,240.189972 1005.317444,256.774750 999.389343,273.138763 
	C997.356689,278.749786 995.465271,284.411987 993.343262,290.407410 
z"/>
<path fill="#FAFAFA" opacity="1.000000" stroke="none" 
	d="
M1437.710449,568.952515 
	C1437.792114,558.802734 1437.741333,549.140686 1438.018799,539.488037 
	C1438.133423,535.496521 1437.239502,533.744751 1432.723755,534.176086 
	C1422.993896,535.105713 1423.901611,535.813782 1424.080078,525.923279 
	C1424.176147,520.597595 1424.090332,515.264709 1423.930176,509.939758 
	C1423.825195,506.448914 1424.715942,504.802429 1428.787231,505.232971 
	C1437.729858,506.178619 1438.274414,508.012299 1437.804688,496.347748 
	C1437.610352,491.523071 1437.713013,486.685486 1437.475586,481.863861 
	C1437.302490,478.348297 1438.782837,477.092102 1442.212158,477.294647 
	C1451.028564,477.815277 1459.858276,477.841400 1468.676636,477.324707 
	C1472.179443,477.119476 1473.458130,478.617767 1473.304443,482.033997 
	C1473.027710,488.188171 1473.069214,494.356873 1472.781860,500.510345 
	C1472.600952,504.382782 1473.450684,506.526215 1478.064087,505.880554 
	C1482.332520,505.283203 1486.715210,505.554321 1491.024658,505.179810 
	C1494.509033,504.877014 1496.022339,506.253204 1495.854004,509.686279 
	C1495.510864,516.678040 1495.463135,523.671875 1496.003540,530.654785 
	C1496.248657,533.820740 1494.680054,534.784119 1491.801025,534.642578 
	C1486.978149,534.405518 1482.135254,534.450562 1477.328613,534.045959 
	C1474.085571,533.773010 1472.711426,534.838257 1472.742920,538.122742 
	C1472.881836,552.609558 1472.826538,567.098999 1473.068481,581.583740 
	C1473.168335,587.557556 1475.432495,589.660339 1481.393066,589.844482 
	C1485.046509,589.957397 1488.714722,589.685669 1492.373047,589.517822 
	C1495.134155,589.391113 1496.439209,590.708557 1496.320190,593.391479 
	C1495.980103,601.048889 1495.796387,608.704163 1496.352051,616.358643 
	C1496.501465,618.416687 1495.471680,619.780334 1493.535400,619.670227 
	C1481.801514,619.002991 1469.859009,620.770203 1458.445435,616.325195 
	C1443.341675,610.442871 1438.850464,598.018677 1437.866455,583.429382 
	C1437.553223,578.785278 1437.748169,574.106812 1437.710449,568.952515 
z"/>
<path fill="#F8F8F8" opacity="1.000000" stroke="none" 
	d="
M1649.626099,314.999634 
	C1649.716919,320.328644 1649.641479,325.168732 1649.958618,329.983002 
	C1650.162598,333.079468 1648.981201,334.334320 1646.020752,334.196381 
	C1636.695435,333.761841 1627.369263,333.810547 1618.046143,334.221130 
	C1615.389648,334.338165 1614.154785,333.527954 1614.162109,330.547211 
	C1614.249146,295.067139 1614.253784,259.586761 1614.187256,224.106659 
	C1614.180908,220.662872 1615.357300,219.440308 1618.874390,219.532516 
	C1627.527466,219.759445 1636.192993,219.762497 1644.847412,219.576416 
	C1648.526489,219.497330 1650.153564,220.719284 1649.776001,224.468887 
	C1649.475830,227.450455 1649.286133,230.447968 1649.190796,233.442978 
	C1649.152344,234.655807 1648.500977,236.282928 1650.222412,236.903305 
	C1651.984497,237.538177 1652.423340,235.860611 1653.165649,234.857880 
	C1659.267700,226.614502 1667.415649,221.575226 1677.331543,219.182297 
	C1684.689941,217.406509 1685.509644,218.064667 1685.406006,225.389252 
	C1685.285889,233.881104 1685.235474,242.380066 1685.459351,250.867920 
	C1685.561890,254.754822 1684.515137,256.352997 1680.337524,255.878937 
	C1674.003296,255.160141 1667.686890,255.652328 1661.650635,257.966248 
	C1654.523193,260.698486 1650.951660,266.205475 1650.244629,273.546600 
	C1648.932251,287.172272 1649.889282,300.848480 1649.626099,314.999634 
z"/>
<path fill="#FBFBFB" opacity="1.000000" stroke="none" 
	d="
M1194.171509,303.000092 
	C1194.215942,312.333008 1194.111328,321.170441 1194.380005,329.996490 
	C1194.484009,333.414032 1193.253662,334.282471 1190.060791,334.222809 
	C1181.233765,334.057983 1172.399414,334.052612 1163.572510,334.221863 
	C1159.997925,334.290405 1158.636841,333.354462 1158.684204,329.414062 
	C1159.250610,282.252502 1159.287842,235.088287 1158.677979,187.926666 
	C1158.626221,183.918808 1159.526978,182.177353 1163.928711,182.337769 
	C1172.415649,182.647049 1180.930420,182.660797 1189.416016,182.335526 
	C1193.571411,182.176224 1194.392090,183.718445 1194.376343,187.501999 
	C1194.216309,225.834305 1194.216309,264.167267 1194.171509,303.000092 
z"/>
<path fill="#FBFBFB" opacity="1.000000" stroke="none" 
	d="
M1280.940918,559.000000 
	C1281.038086,578.158081 1281.054443,596.817261 1281.304688,615.473267 
	C1281.351196,618.941589 1279.962158,619.898499 1276.887939,619.740906 
	C1267.896729,619.279907 1258.897217,619.251526 1249.913086,619.791443 
	C1246.279907,620.009827 1245.516113,618.541199 1245.527954,615.125000 
	C1245.648682,580.305664 1245.674316,545.485291 1245.502808,510.666351 
	C1245.480835,506.182892 1246.820801,504.806793 1251.221069,505.187653 
	C1259.357666,505.891907 1267.545410,505.864807 1275.687378,505.237946 
	C1279.874756,504.915558 1281.345581,506.320923 1281.280640,510.522522 
	C1281.034058,526.513000 1281.033447,542.507202 1280.940918,559.000000 
z"/>
<path fill="#F8F8F8" opacity="1.000000" stroke="none" 
	d="
M1858.800781,191.084625 
	C1857.224976,199.078049 1853.012939,205.721085 1850.270386,212.972916 
	C1846.586914,222.712921 1842.158325,232.169525 1838.380493,241.876495 
	C1837.239990,244.806290 1835.627563,245.564423 1832.791016,245.502686 
	C1827.808594,245.394241 1822.810669,245.396912 1817.837402,245.676468 
	C1814.377808,245.870956 1813.286865,244.618759 1813.948853,241.302795 
	C1815.864380,231.706558 1817.706055,222.095444 1819.550659,212.485153 
	C1820.675903,206.622025 1821.812744,200.759872 1822.820923,194.876129 
	C1823.199341,192.667465 1823.295410,190.325272 1826.288452,190.345825 
	C1837.054443,190.419739 1847.819946,190.584732 1858.800781,191.084625 
z"/>
<path fill="#F8F8F8" opacity="1.000000" stroke="none" 
	d="
M1246.360840,463.469299 
	C1255.956665,453.219696 1271.179565,452.957275 1279.647827,462.641388 
	C1287.841309,472.011200 1284.351929,486.937164 1272.856445,491.692413 
	C1261.774170,496.276764 1249.787964,492.786865 1244.735718,483.070282 
	C1241.338989,476.537415 1242.180420,469.932281 1246.360840,463.469299 
z"/>
<path fill="#040404" opacity="1.000000" stroke="none" 
	d="
M666.519531,220.253952 
	C676.719177,220.677399 686.601135,219.376846 696.241272,222.087036 
	C712.216553,226.578278 720.594055,237.790604 722.973267,253.492737 
	C724.633667,264.450867 723.939697,275.516998 718.252197,285.514893 
	C711.679382,297.069000 700.965210,302.200867 688.253845,303.488861 
	C681.809082,304.141907 675.278015,303.907410 668.791504,304.197876 
	C665.664490,304.337860 664.717163,302.842316 664.773193,299.964508 
	C665.262512,274.820679 665.274292,249.676025 664.775635,224.531616 
	C664.745911,223.030746 664.726074,221.500595 666.519531,220.253952 
z"/>
<path fill="#050505" opacity="1.000000" stroke="none" 
	d="
M1426.458008,298.478149 
	C1416.671021,306.428894 1405.648193,307.420349 1396.145996,301.454437 
	C1387.432861,295.983917 1382.399292,282.254761 1384.949829,270.915863 
	C1388.126221,256.795044 1396.842163,248.736343 1409.110840,248.577011 
	C1422.173462,248.407364 1432.014160,256.982544 1434.326904,271.400024 
	C1435.918335,281.319183 1433.974487,290.621521 1426.458008,298.478149 
z"/>
<path fill="#090909" opacity="1.000000" stroke="none" 
	d="
M1354.220947,531.811035 
	C1364.251709,531.411133 1371.972046,534.489136 1376.466309,543.532043 
	C1379.637085,549.912048 1378.383301,551.777466 1371.534302,551.686401 
	C1361.054810,551.547058 1350.570190,551.607300 1340.090332,551.761475 
	C1334.068726,551.850037 1332.906494,550.289673 1335.619873,544.793335 
	C1339.336548,537.265015 1345.192261,532.616699 1354.220947,531.811035 
z"/>
<path fill="#0B0B0B" opacity="1.000000" stroke="none" 
	d="
M1090.621582,247.177856 
	C1097.593750,249.508972 1101.994629,253.925201 1104.270386,260.463562 
	C1105.803833,264.869476 1104.788696,266.387604 1100.211426,266.201447 
	C1088.734375,265.734589 1077.263550,265.776703 1065.787842,266.227661 
	C1060.827271,266.422577 1060.313599,265.633972 1061.869751,260.796783 
	C1065.488892,249.547974 1076.414062,244.249481 1090.621582,247.177856 
z"/>
<path fill="#0B0B0B" opacity="1.000000" stroke="none" 
	d="
M1559.037598,258.972229 
	C1561.351074,265.911926 1560.960327,266.412628 1553.962646,266.136841 
	C1543.342285,265.718231 1532.722290,265.768494 1522.102905,266.198792 
	C1515.670898,266.459442 1515.296875,265.906219 1517.721191,259.985077 
	C1521.288818,251.271469 1527.810181,246.693192 1537.167847,246.281952 
	C1546.947021,245.852142 1554.694946,249.175705 1559.037598,258.972229 
z"/>
<path fill="#0B0B0B" opacity="1.000000" stroke="none" 
	d="
M845.453979,252.570358 
	C847.898193,255.175644 849.117798,257.998993 850.178406,261.020874 
	C851.698486,265.352020 849.888550,266.428497 845.987854,266.235901 
	C834.368103,265.662170 822.748230,265.785797 811.125061,266.253784 
	C806.355103,266.445831 805.847656,265.560944 807.655945,261.089264 
	C814.092529,245.172302 831.949768,241.004639 845.453979,252.570358 
z"/>
<path fill="#050505" opacity="1.000000" stroke="none" 
	d="
M1264.609375,249.405518 
	C1280.889648,245.844589 1293.483032,255.158463 1294.793457,271.389862 
	C1295.315063,277.851166 1295.614746,284.294952 1292.964233,290.502777 
	C1288.686768,300.520660 1279.673218,306.344330 1269.492310,305.485016 
	C1259.181885,304.614777 1252.191528,298.092651 1249.134521,287.255463 
	C1246.822876,279.060791 1247.367310,271.048828 1250.101685,263.258606 
	C1252.460693,256.537964 1257.235229,251.758743 1264.609375,249.405518 
z"/>
<path fill="#050505" opacity="1.000000" stroke="none" 
	d="
M1067.832764,565.691406 
	C1066.770508,575.458923 1063.626953,583.481140 1054.798096,588.265930 
	C1040.976685,595.756226 1024.334106,587.643677 1021.447144,572.177002 
	C1019.819824,563.458496 1019.848999,555.005188 1023.570496,546.842773 
	C1027.787598,537.593262 1037.047485,532.830017 1047.783447,534.194580 
	C1056.615601,535.317078 1065.022827,543.414612 1066.617798,552.403564 
	C1067.370728,556.647095 1068.468262,560.865356 1067.832764,565.691406 
z"/>
</svg>